<svg width="42" height="42" viewBox="0 0 42 42" fill="none" xmlns="http://www.w3.org/2000/svg">
<path fill-rule="evenodd" clip-rule="evenodd" d="M20.5626 11.2105C17.9726 11.2105 17.7136 11.4853 16.3731 11.4853C15.2566 11.4853 11.9036 8.75 10.2288 8.75C8.55406 8.75 6.59756 9.73525 6.59756 12.579V15.8602C6.60106 16.7212 6.91256 19.3602 8.13756 18.655C6.69031 20.3665 6.54506 22.3633 6.56431 24.2953C6.17406 24.4073 5.77681 24.535 5.39006 24.6663C4.19306 25.0758 2.92256 25.5972 2.35031 25.9683C2.05791 26.1572 1.85253 26.4545 1.77934 26.7948C1.70615 27.1351 1.77116 27.4906 1.96006 27.783C2.14896 28.0754 2.44628 28.2808 2.78661 28.354C3.12695 28.4272 3.48241 28.3622 3.77481 28.1733C4.04781 27.9965 5.03656 27.5607 6.23881 27.1495L6.63781 27.0182C6.71831 27.776 6.91956 28.4707 7.21881 29.1007L7.17681 29.1235C6.45931 29.5015 5.79431 29.9372 5.37081 30.2137L5.17306 30.3433C4.88066 30.5322 4.67528 30.8295 4.60209 31.1698C4.5289 31.5101 4.59391 31.8656 4.78281 32.158C4.97171 32.4504 5.26903 32.6558 5.60936 32.729C5.9497 32.8022 6.30516 32.7372 6.59756 32.5483L6.82681 32.3978C7.25556 32.1178 7.80506 31.759 8.40356 31.444C8.54356 31.3693 8.67831 31.3017 8.80781 31.241C11.8353 34.0812 17.2726 35 20.5626 35C23.8526 35 29.2898 34.0812 32.3173 31.241C32.4456 31.3017 32.5804 31.3693 32.7216 31.444C33.3201 31.759 33.8696 32.1178 34.2983 32.3978L34.5276 32.5483C34.82 32.7372 35.1754 32.8022 35.5158 32.729C35.8561 32.6558 36.1534 32.4504 36.3423 32.158C36.5312 31.8656 36.5962 31.5101 36.523 31.1698C36.4498 30.8295 36.2445 30.5322 35.9521 30.3433L35.7543 30.2137C35.1695 29.8226 34.5668 29.4588 33.9483 29.1235L33.9063 29.1007C34.2056 28.4707 34.4068 27.776 34.4873 27.0182L34.8863 27.1495C36.0886 27.5607 37.0773 27.9965 37.3521 28.1733C37.6443 28.3516 37.9947 28.4086 38.3284 28.3322C38.6622 28.2558 38.9529 28.0521 39.1385 27.7644C39.3241 27.4767 39.39 27.1279 39.322 26.7924C39.2541 26.4568 39.0577 26.1611 38.7748 25.9683C38.2026 25.5972 36.9321 25.0758 35.7368 24.6663C35.3476 24.5334 34.9555 24.4091 34.5608 24.2935C34.5818 22.3615 34.4348 20.3665 32.9858 18.655C34.2108 19.3602 34.5258 16.7213 34.5276 15.8585V12.579C34.5276 9.73525 32.5728 8.75 30.8963 8.75C29.2216 8.75 25.8686 11.4853 24.7538 11.4853C23.4116 11.4853 23.1526 11.2105 20.5626 11.2105ZM19.3813 27.3C19.7348 27.1793 20.1531 27.125 20.5626 27.125C20.9721 27.125 21.3903 27.1793 21.7456 27.3C21.9206 27.3595 22.1306 27.454 22.3196 27.6045C22.449 27.7023 22.5549 27.8279 22.6294 27.9721C22.7039 28.1163 22.7452 28.2753 22.7501 28.4375C22.7501 28.84 22.5068 29.12 22.3196 29.2705C22.1323 29.421 21.9188 29.5155 21.7456 29.575C21.3903 29.6957 20.9721 29.75 20.5626 29.75C20.1531 29.75 19.7348 29.6957 19.3813 29.575C19.1735 29.5069 18.9788 29.404 18.8056 29.2705C18.6761 29.1727 18.5702 29.0471 18.4957 28.9029C18.4212 28.7587 18.38 28.5997 18.3751 28.4375C18.3751 28.035 18.6183 27.755 18.8056 27.6045C18.9928 27.454 19.2081 27.3595 19.3813 27.3ZM24.3601 21.875C24.5998 21.476 25.0706 21 25.7776 21C26.4846 21 26.9571 21.476 27.1951 21.875C27.4436 22.2933 27.5626 22.7972 27.5626 23.2977C27.5626 23.7982 27.4436 24.3005 27.1951 24.717C26.9571 25.1178 26.4846 25.5938 25.7776 25.5938C25.0706 25.5938 24.5998 25.1178 24.3601 24.7188C24.1134 24.2862 23.9865 23.7957 23.9926 23.2977C23.9926 22.7972 24.1116 22.2933 24.3601 21.8768M13.9301 21.8768C14.1698 21.4778 14.6406 21.0018 15.3476 21.0018C16.0546 21.0018 16.5271 21.4778 16.7651 21.8768C17.0136 22.295 17.1326 22.799 17.1326 23.2995C17.1326 23.8 17.0136 24.3022 16.7651 24.7188C16.5271 25.1195 16.0546 25.5955 15.3476 25.5955C14.6406 25.5955 14.1698 25.1195 13.9301 24.7205C13.6834 24.2879 13.5565 23.7974 13.5626 23.2995C13.5626 22.799 13.6816 22.2933 13.9301 21.8768Z" fill="#EBDBC2"/>
</svg>
