<svg width="149" height="95" viewBox="0 0 149 95" fill="none" xmlns="http://www.w3.org/2000/svg">
<path d="M132.635 1.46743C133.215 0.348268 134.87 0.538398 135.182 1.75988L136.905 8.52589C137.084 9.23186 137.785 9.67404 138.5 9.53278L145.349 8.17889C146.586 7.93447 147.469 9.34743 146.708 10.3522L142.493 15.918C142.053 16.4987 142.144 17.322 142.7 17.7927L148.029 22.3037C148.991 23.1181 148.437 24.6899 147.177 24.7214L140.197 24.8958C139.469 24.914 138.882 25.4984 138.861 26.2266L138.657 33.2056C138.62 34.4655 137.046 35.0126 136.235 34.0471L131.747 28.6987C131.279 28.1407 130.456 28.0462 129.873 28.4836L124.29 32.6752C123.282 33.432 121.872 32.5423 122.122 31.3068L123.505 24.4632C123.65 23.7491 123.21 23.0469 122.505 22.864L115.747 21.112C114.526 20.7957 114.343 19.1393 115.465 18.5642L121.678 15.3786C122.326 15.0462 122.601 14.265 122.305 13.5997L119.461 7.2232C118.947 6.07204 120.128 4.89617 121.277 5.41453L127.641 8.28584C128.305 8.58543 129.088 8.31353 129.423 7.6667L132.635 1.46743Z" fill="#EBDBC2"/>
<path d="M22.04 55.345C24.7 45.7817 31.3183 41 41.895 41C43.7317 41 45.505 41.1267 47.215 41.38L44.175 62.66C39.615 60.95 35.8783 60.095 32.965 60.095C29.355 60.095 26.695 61.1717 24.985 63.325C23.275 65.4783 22.42 68.36 22.42 71.97V71.875L22.325 78.145C22.325 82.6417 22.4517 87.645 22.705 93.155H0C0.50667 84.035 0.76 75.4217 0.76 67.315C0.76 59.2083 0.50667 50.5317 0 41.285C4.18 41.475 7.37833 41.57 9.595 41.57C11.9383 41.57 15.1367 41.475 19.19 41.285L22.04 55.345ZM110.378 41.285C109.935 49.265 109.713 57.8783 109.713 67.125C109.713 76.435 109.935 85.1117 110.378 93.155C106.325 92.965 103.126 92.87 100.783 92.87C98.5665 92.87 95.3681 92.965 91.1881 93.155L88.4331 79.19C86.9765 84.2567 84.6965 88.025 81.5931 90.495C78.4898 92.9017 74.8798 94.105 70.7631 94.105C66.9631 94.105 63.6698 93.2817 60.8831 91.635C58.0965 89.925 55.9748 87.645 54.5181 84.795C53.1248 81.945 52.4281 78.7467 52.4281 75.2V61.52C52.4281 53.0967 52.2698 46.3517 51.9531 41.285H73.3281C72.9481 50.595 72.7581 59.81 72.7581 68.93C72.7581 71.7167 73.4231 73.9333 74.7531 75.58C76.1465 77.2267 77.8881 78.05 79.9781 78.05C81.9415 78.05 83.6515 77.195 85.1081 75.485C86.6281 73.7117 87.5465 71.305 87.8631 68.265V66.08C87.9898 61.14 88.0531 57.72 88.0531 55.82C88.0531 51.45 87.9265 46.605 87.6731 41.285H110.378ZM119.718 93.155C120.161 82.9583 120.383 74.535 120.383 67.885C120.383 59.9683 120.129 51.1017 119.623 41.285H142.423C141.916 50.7217 141.663 59.5883 141.663 67.885C141.663 74.8517 141.884 83.275 142.328 93.155H119.718Z" fill="#EBDBC2"/>
</svg>
