<svg width="19" height="18" viewBox="0 0 19 18" fill="none" xmlns="http://www.w3.org/2000/svg">
<path fill-rule="evenodd" clip-rule="evenodd" d="M9.5 1.5C10.3183 1.5 11.0878 1.719 11.75 2.103C11.8396 2.14989 11.9188 2.21442 11.9829 2.29271C12.0469 2.37101 12.0945 2.46145 12.1227 2.5586C12.1508 2.65574 12.1591 2.75759 12.1469 2.858C12.1347 2.95841 12.1023 3.05532 12.0517 3.1429C12.0011 3.23047 11.9333 3.3069 11.8523 3.36759C11.7714 3.42827 11.679 3.47196 11.5808 3.49603C11.4825 3.52009 11.3804 3.52404 11.2806 3.50762C11.1808 3.4912 11.0854 3.45477 11 3.4005C10.5438 3.13713 10.0264 2.99851 9.49964 2.99858C8.97291 2.99864 8.45548 3.13738 7.99938 3.40086C7.54328 3.66433 7.16459 4.04325 6.90139 4.4995C6.63819 4.95576 6.49975 5.47327 6.5 6L14.75 6.00075C15.1478 6.00075 15.5294 6.15879 15.8107 6.44009C16.092 6.72139 16.25 7.10293 16.25 7.50075V15.0007C16.25 15.3986 16.092 15.7801 15.8107 16.0614C15.5294 16.3427 15.1478 16.5007 14.75 16.5007H4.25C3.85218 16.5007 3.47064 16.3427 3.18934 16.0614C2.90804 15.7801 2.75 15.3986 2.75 15.0007V7.5C2.75 7.10218 2.90804 6.72064 3.18934 6.43934C3.47064 6.15804 3.85218 6 4.25 6H5C5 4.80653 5.47411 3.66193 6.31802 2.81802C7.16193 1.97411 8.30653 1.5 9.5 1.5ZM9.5 9C9.16981 9.00001 8.84885 9.10898 8.5869 9.30999C8.32495 9.511 8.13664 9.79283 8.05118 10.1118C7.96572 10.4307 7.98788 10.7689 8.11423 11.074C8.24058 11.379 8.46406 11.6339 8.75 11.799V12.75C8.75 12.9489 8.82902 13.1397 8.96967 13.2803C9.11032 13.421 9.30109 13.5 9.5 13.5C9.69891 13.5 9.88968 13.421 10.0303 13.2803C10.171 13.1397 10.25 12.9489 10.25 12.75V11.799C10.5359 11.6339 10.7594 11.379 10.8858 11.074C11.0121 10.7689 11.0343 10.4307 10.9488 10.1118C10.8634 9.79283 10.6751 9.511 10.4131 9.30999C10.1511 9.10898 9.83019 9.00001 9.5 9ZM15.4385 3.76575L16.163 3.96075C16.3477 4.01858 16.5029 4.14559 16.5962 4.31522C16.6894 4.48485 16.7135 4.68396 16.6633 4.87091C16.6131 5.05786 16.4926 5.21818 16.327 5.31832C16.1613 5.41847 15.9634 5.45069 15.7745 5.40825L15.0507 5.21475C14.8594 5.16259 14.6965 5.03679 14.5977 4.86485C14.4989 4.69291 14.4722 4.48884 14.5235 4.29728C14.5748 4.10571 14.6998 3.94224 14.8713 3.84263C15.0428 3.74303 15.2467 3.71538 15.4385 3.76575ZM14.4747 1.5675C14.5699 1.593 14.6591 1.63699 14.7372 1.69697C14.8154 1.75694 14.8809 1.83172 14.9302 1.91704C14.9794 2.00235 15.0114 2.09654 15.0242 2.1942C15.0371 2.29187 15.0305 2.39111 15.005 2.48625L14.9083 2.84775C14.8832 2.9433 14.8394 3.03294 14.7796 3.11155C14.7198 3.19015 14.645 3.25615 14.5596 3.30577C14.4742 3.35539 14.3798 3.38765 14.2819 3.40069C14.1839 3.41373 14.0844 3.4073 13.989 3.38176C13.8935 3.35623 13.8041 3.31209 13.7258 3.25189C13.6475 3.19168 13.5818 3.1166 13.5326 3.03095C13.4834 2.9453 13.4515 2.85077 13.439 2.75279C13.4264 2.65481 13.4333 2.55531 13.4592 2.46L13.5568 2.09775C13.6083 1.90575 13.7339 1.74206 13.906 1.64263C14.0781 1.54321 14.2827 1.51618 14.4747 1.5675Z" fill="#EBDBC2"/>
</svg>
